<svg width="10" height="10" viewBox="0 0 10 10" fill="none" xmlns="http://www.w3.org/2000/svg">
<path d="M5.83398 2.91071C5.83398 2.80022 5.74805 2.71429 5.63756 2.71429H5.2447C5.13421 2.71429 5.04827 2.80022 5.04827 2.91071V5.07143H3.67327C3.56278 5.07143 3.47684 5.15737 3.47684 5.26786V5.66071C3.47684 5.77121 3.56278 5.85714 3.67327 5.85714H5.63756C5.74805 5.85714 5.83398 5.77121 5.83398 5.66071V2.91071ZM8.38756 5.07143C8.38756 6.91295 6.88979 8.41071 5.04827 8.41071C3.20675 8.41071 1.70898 6.91295 1.70898 5.07143C1.70898 3.22991 3.20675 1.73214 5.04827 1.73214C6.88979 1.73214 8.38756 3.22991 8.38756 5.07143ZM9.76256 5.07143C9.76256 2.46875 7.65095 0.357142 5.04827 0.357142C2.44559 0.357142 0.333984 2.46875 0.333984 5.07143C0.333984 7.67411 2.44559 9.78571 5.04827 9.78571C7.65095 9.78571 9.76256 7.67411 9.76256 5.07143Z" fill="white"/>
</svg>
