<svg width="11" height="10" viewBox="0 0 11 10" fill="none" xmlns="http://www.w3.org/2000/svg">
<path fill-rule="evenodd" clip-rule="evenodd" d="M8.16878 0.669863C9.00202 1.11649 9.66173 1.72235 10.1481 2.48754C10.6342 3.25273 10.8773 4.0885 10.8773 4.99469C10.8773 5.9008 10.6342 6.73651 10.148 7.5018C9.66168 8.26699 9.00199 8.87301 8.16876 9.31952C7.33547 9.7661 6.42542 9.98938 5.43872 9.98938C4.45202 9.98938 3.54207 9.7661 2.70873 9.31952C1.87545 8.87285 1.21574 8.26699 0.729407 7.5018C0.243177 6.73645 0 5.90084 0 4.99469C0 4.08859 0.243103 3.25285 0.729482 2.48754C1.21584 1.72228 1.87554 1.11642 2.70883 0.669863C3.54207 0.223257 4.4521 0 5.43882 0C6.42564 0 7.3354 0.223257 8.16878 0.669863ZM7.37208 8.0579C7.96219 7.74141 8.42954 7.31205 8.77417 6.77011C9.11881 6.22818 9.29103 5.63636 9.29103 4.99469C9.29103 4.35298 9.11881 3.76116 8.77417 3.21923C8.42956 2.67729 7.96219 2.24802 7.37208 1.93153C6.78197 1.61501 6.13754 1.45681 5.43874 1.45681C4.73999 1.45681 4.09556 1.61501 3.50545 1.93153C2.91539 2.248 2.44791 2.67729 2.10336 3.21923C1.75874 3.76116 1.58637 4.35298 1.58637 4.99469C1.58637 5.63636 1.75866 6.22818 2.10336 6.77011C2.44799 7.31205 2.91534 7.74139 3.50545 8.0579C4.09563 8.3744 4.74009 8.53248 5.43874 8.53248C6.13756 8.53248 6.78197 8.3744 7.37208 8.0579Z" fill="#327FA0"/>
<path d="M6.11869 2.49731H5.66543C5.59922 2.49731 5.54505 2.51688 5.50246 2.55586C5.46015 2.59488 5.43884 2.64469 5.43884 2.7054V4.99469H3.85256C3.78641 4.99469 3.73219 5.01417 3.68967 5.0531C3.64721 5.0921 3.62598 5.14196 3.62598 5.20278V5.61898C3.62598 5.67971 3.64721 5.72959 3.68967 5.76857C3.73221 5.80754 3.78653 5.82702 3.85256 5.82702H6.11882C6.18484 5.82702 6.23919 5.80754 6.28155 5.76857C6.32399 5.72959 6.34537 5.67971 6.34537 5.61898V2.7054C6.34537 2.64474 6.32399 2.59495 6.28155 2.55586C6.23914 2.51688 6.18482 2.49731 6.11869 2.49731Z" fill="#327FA0"/>
</svg>
