<svg width="71" height="71" viewBox="0 0 71 71" fill="none" xmlns="http://www.w3.org/2000/svg">
<circle cx="35.5" cy="35.5" r="35.5" fill="#D3A52B"/>
<path d="M36 31.5836C36 27.64 38.3176 24.0647 41.9176 22.4548L50 18.8403V22.0971C50 26.0406 47.6824 29.6159 44.0824 31.2258L36 34.8403V31.5836Z" fill="white"/>
<path d="M36 43.5836C36 39.64 38.3176 36.0647 41.9176 34.4548L50 30.8403V34.0971C50 38.0406 47.6824 41.6159 44.0824 43.2258L36 46.8403V43.5836Z" fill="#324BA0"/>
<path d="M36 55.5836C36 51.64 38.3176 48.0647 41.9176 46.4548L50 42.8403V46.0971C50 50.0406 47.6824 53.6159 44.0824 55.2258L36 58.8403V55.5836Z" fill="#D12026"/>
<path d="M35 31.5836C35 27.64 32.6824 24.0647 29.0824 22.4548L21 18.8403V22.0971C21 26.0406 23.3176 29.6159 26.9176 31.2258L35 34.8403V31.5836Z" fill="#FED700"/>
<path d="M35 43.5836C35 39.64 32.6824 36.0647 29.0824 34.4548L21 30.8403V34.0971C21 38.0406 23.3176 41.6159 26.9176 43.2258L35 46.8403V43.5836Z" fill="#FED700"/>
<path d="M35 55.5836C35 51.64 32.6824 48.0647 29.0824 46.4548L21 42.8403V46.0971C21 50.0406 23.3176 53.6159 26.9176 55.2258L35 58.8403V55.5836Z" fill="#FED700"/>
<path d="M36.3967 8.98704C40.302 12.8923 40.302 19.2239 36.3967 23.1292L35.4097 24.1162L34.4226 23.1292C30.5174 19.2239 30.5174 12.8923 34.4226 8.98704L35.4097 8.00001L36.3967 8.98704Z" fill="#FED700"/>
</svg>
